<?xml version="1.0" encoding="UTF-8" standalone="no"?>
<svg width="48px" height="72px" viewBox="0 0 48 72" version="1.1" xmlns="http://www.w3.org/2000/svg" xmlns:xlink="http://www.w3.org/1999/xlink">
    <!-- Generator: Sketch 45 (43475) - http://www.bohemiancoding.com/sketch -->
    <title>Group 12</title>
    <desc>Created with Sketch.</desc>
    <defs></defs>
    <g id="Page-1" stroke="none" stroke-width="1" fill="none" fill-rule="evenodd">
        <g id="手机号登录" transform="translate(-692.000000, -547.000000)" fill-rule="nonzero">
            <g id="Group-7" transform="translate(536.000000, 236.000000)">
                <g id="Group-9">
                    <g id="Group-12" transform="translate(156.000000, 311.000000)">
                        <path d="M5.40010434,13.5125739 C5.1168,13.7405739 4.81314783,14.0734435 4.72497391,14.4965739 C4.60497391,15.0746609 4.69993043,15.7983131 5.25766957,16.3659652 C5.93332174,17.0541391 6.96010434,17.2424869 7.4035826,17.2748348 C8.60827826,17.3619652 9.89227826,16.7645739 10.8601043,16.0831826 C11.2394087,15.8155304 11.8889739,15.2781391 12.5098435,14.4490957 C11.1183652,13.7306609 9.38149566,12.9360522 7.52462609,13.0137913 C6.57610434,13.0534435 5.8968,13.2501391 5.40010434,13.5125739 Z M23.0452174,16.6893913 C23.6593043,15.2478261 24,13.6633043 24,12 C24,5.38330434 18.6172174,0 12,0 C5.3827826,0 0,5.38330434 0,12 C0,18.6172174 5.3827826,24 12,24 C15.9933913,24 19.5349565,22.0377391 21.7179131,19.0283478 C19.6554783,18.0031304 16.2563478,16.3158261 14.1626087,15.2947826 C13.1634783,16.4337391 11.6864348,17.5753043 10.0179131,18.072 C8.96973914,18.3834783 8.02486957,18.5024348 7.03669566,18.3005217 C6.05843477,18.1001739 5.33791305,17.6420869 4.91791305,17.1829565 C4.704,16.9486957 4.45826086,16.6507826 4.28034783,16.2965217 C4.29704348,16.3413913 4.30852174,16.368 4.30852174,16.368 C4.30852174,16.368 4.20626086,16.1916522 4.128,15.9109565 C4.08782609,15.7753043 4.06069566,15.6339131 4.04973914,15.4857391 C4.04139131,15.3886957 4.03930434,15.2864348 4.04504348,15.18 C4.03617391,14.9994783 4.04347826,14.8100869 4.08417391,14.616 C4.18226086,14.1417391 4.38469566,13.5892174 4.90852174,13.0763478 C6.05843477,11.9504348 7.59860869,11.8899131 8.39634783,11.8946087 C9.57808695,11.9013913 11.6316522,12.4184348 13.3606957,13.0299131 C13.8396522,12.0099131 14.1469565,10.9189565 14.3452174,10.1916522 L7.15565217,10.1916522 L7.15565217,9.41426086 L10.8474783,9.41426086 L10.8474783,7.85947826 L6.37826086,7.85947826 L6.37826086,7.08208695 L10.8474783,7.08208695 L10.8474783,5.52782609 C10.8474783,5.31443477 10.8897391,5.13913043 11.2361739,5.13913043 L12.9850435,5.13913043 L12.9850435,7.08208695 L17.8434783,7.08208695 L17.8434783,7.85947826 L12.9850435,7.85947826 L12.9850435,9.41426086 L16.8714783,9.41426086 C16.8714783,9.41426086 16.4812174,11.5899131 15.2608696,13.7342609 C17.9692174,14.7015652 21.7794783,16.1916522 23.0452174,16.6893913 Z" id="Shape" fill="#108EE9"></path>
                        <g id="Group-10" transform="translate(24.000000, 48.000000)" fill-opacity="0.2" fill="#000000">
                            <path d="M11.9792399,0 C5.36330181,0 0,5.36928763 0,11.9926096 C0,18.6159315 5.36330181,23.9852192 11.9792399,23.9852192 C18.5952054,23.9852192 23.9584798,18.6159315 23.9584798,11.9926096 C23.9584798,5.36928763 18.595178,0 11.9792399,0 Z M17.6111887,13.9958959 C17.604864,14.3764288 17.4976188,14.7816032 17.2892613,15.2111725 C16.9460875,15.9475967 16.3545002,16.579671 15.5146088,17.1075051 C14.6746353,17.6352844 13.7675,18.0066624 12.7930935,18.2214744 C11.8187143,18.4362591 10.8777928,18.506785 9.9704111,18.4329151 C9.41887987,18.3959938 8.89478282,18.3316626 8.39811995,18.2397295 C7.9014571,18.1478238 7.38346566,18.0005225 6.84406349,17.7979079 C6.30468872,17.595211 5.83576123,17.3497272 5.43717148,17.0615112 C5.03855435,16.7732677 4.69529843,16.395887 4.40740375,15.9293142 C4.11945429,15.4627688 3.93864054,14.9349347 3.86490772,14.3458118 L3.86490775,13.9593584 C3.85277865,13.6895345 3.94474617,13.2907192 4.14089239,12.762885 C4.33703864,12.2351331 4.63730884,11.7072716 5.04178515,11.1794923 L5.24417389,10.884972 C5.39131096,10.7007494 5.5998053,10.4614054 5.86965696,10.1668303 C6.13959077,9.87231 6.43693137,9.56847029 6.76173357,9.25553046 C7.08653573,8.94253583 7.46960134,8.64193047 7.91090301,8.35365964 C8.35223205,8.06538881 8.78748284,7.84764386 9.21657327,7.7003426 C9.5720404,7.57743621 9.89073699,7.5038404 10.1727999,7.47947293 C10.4548627,7.45510546 10.6847404,7.47352497 10.8624603,7.53478629 C11.0401528,7.5960476 11.1872625,7.67581066 11.3038167,7.77399324 C11.4202341,7.87214839 11.5091077,8.00097536 11.5703007,8.16041925 C11.6314938,8.31983574 11.6713856,8.46395746 11.6897572,8.59278439 C11.7082383,8.72169356 11.7174652,8.85967543 11.7174652,9.00692188 C11.7049254,9.06815579 11.6864991,9.1510162 11.6621313,9.25553046 C11.637791,9.35998993 11.6224859,9.43684754 11.6162982,9.48585659 C11.6100283,9.53492046 11.6039227,9.59324893 11.5980908,9.66078712 C11.5921495,9.72840755 11.6013216,9.77133161 11.6256619,9.78986076 C11.6500022,9.80825285 11.6837611,9.8267546 11.7268837,9.84517412 C11.7700337,9.86367587 11.831391,9.86677318 11.9110925,9.85463057 C11.9907392,9.84240571 12.0919062,9.81787377 12.214703,9.78097993 L12.4536432,9.67016135 C12.6129094,9.60892744 12.8151339,9.54448655 13.0602619,9.47703059 C13.3054721,9.40946496 13.5659599,9.35426127 13.8416708,9.31147428 C14.1174638,9.26863246 14.3932568,9.27181203 14.6690498,9.32082107 C14.9448702,9.36996718 15.1686697,9.48053906 15.3404482,9.65250932 C15.4381106,9.75107563 15.5148552,9.86164752 15.5705176,9.98417017 C15.6262347,10.1066928 15.6631422,10.2201702 15.6811852,10.3246296 C15.6991461,10.4291713 15.7023221,10.5397432 15.690549,10.6563179 C15.6788032,10.7729748 15.6635255,10.8711573 15.6447158,10.9508382 C15.6258514,11.0306012 15.5981708,11.1102821 15.5617288,11.1900451 C15.5252594,11.269726 15.5007,11.321942 15.4881329,11.3466932 C15.4755931,11.3714718 15.463245,11.3898639 15.4510885,11.4020888 L15.3957547,11.4939945 C15.3592853,11.5555847 15.3684848,11.623123 15.4234353,11.6966091 C15.4783584,11.7700131 15.5978149,11.8252442 15.7817499,11.8621654 L15.7817499,11.8604386 C15.9288048,11.8848883 16.0972431,11.9400372 16.2872016,12.0259949 C16.4770779,12.1120349 16.679275,12.2471113 16.8937928,12.4313338 C17.1084202,12.6155563 17.2831283,12.8271888 17.4181089,13.0663958 C17.5530895,13.3055206 17.6174312,13.6153082 17.6111887,13.9958959 Z M16.664408,9.76264264 C16.5910859,8.92773442 16.0761883,8.6208248 15.1198248,8.84191374 C14.9974114,8.84153001 14.89326,8.79849632 14.8073981,8.71294974 C14.7214541,8.62729353 14.6784958,8.52302593 14.6784958,8.40009214 C14.6780851,8.32666079 14.6994958,8.2561897 14.7426458,8.18856927 C14.7857683,8.12103107 14.8380083,8.06585475 14.8991192,8.02312259 C14.9603122,7.98028077 15.0338807,7.9589284 15.1198522,7.9589284 C15.4019151,7.90978229 15.7084825,7.91589471 16.0395272,7.97718346 C17.1673681,8.17354862 17.6577063,8.9713163 17.510624,10.3705413 C17.510624,10.39532 17.5045184,10.4138217 17.4923893,10.4259643 C17.4802055,10.4876368 17.4557009,10.545883 17.4188208,10.6008674 C17.3818585,10.6558793 17.3328767,10.7018184 17.2716837,10.7387397 C17.2104907,10.7756335 17.1430277,10.7941353 17.0692676,10.7941353 L17.0686926,10.7935597 C16.9463065,10.7931485 16.8421552,10.7501422 16.7561838,10.6645134 C16.6703219,10.5789943 16.627391,10.4746993 16.627391,10.3517381 C16.6767835,10.167543 16.6891316,9.97120524 16.664408,9.76264264 Z M19.9473112,9.60700872 C19.92883,10.0425534 19.846062,10.4996972 19.6990071,10.9784126 C19.6378141,11.3958667 19.4355896,11.6046212 19.0923337,11.6046212 C18.9699203,11.6047034 18.8626477,11.5893812 18.7704611,11.5587369 C18.6782746,11.5280925 18.6015848,11.4759039 18.5403918,11.4019791 C18.4791166,11.3281915 18.4485338,11.2361213 18.4485338,11.1257139 C18.4485338,11.0762388 18.4546668,11.0179104 18.4668506,10.9507833 C18.4789797,10.8836563 18.4913826,10.8284252 18.503895,10.785227 C18.5164074,10.7420563 18.5288103,10.6961172 18.5409393,10.6474096 C18.5531506,10.5987569 18.5623227,10.5681125 18.56862,10.5555039 C18.5748898,10.5429501 18.5780659,10.5305608 18.5780659,10.5184182 C18.7741847,9.84333763 18.7128274,9.14367029 18.3938844,8.41947102 C18.235029,8.16140598 18.0480822,7.9344787 17.8330989,7.7385247 C17.6180883,7.54251587 17.4035704,7.38915699 17.1893812,7.27844804 C16.9751919,7.16762946 16.7605919,7.07558673 16.5456634,7.00210055 C16.3306253,6.92866921 16.1345065,6.88275747 15.9571973,6.86433796 C15.7798607,6.84583621 15.6296298,6.83662645 15.5064224,6.83662645 C15.3832971,6.83662645 15.3005017,6.84583621 15.2581457,6.86433796 C15.215735,6.88275747 15.1667532,6.9012592 15.1110086,6.91965131 C15.0553462,6.93815306 15.0031884,6.95046013 14.9545078,6.95681925 C14.9058546,6.96306873 14.8599392,6.97230589 14.8168166,6.98444853 C14.773694,6.99667339 14.7460134,7.00270358 14.7339117,7.00270358 L14.6785779,7.00270358 C14.5071005,7.00234725 14.3600456,6.94086664 14.2372763,6.81831659 C14.1144521,6.69576654 14.0530675,6.54243506 14.0530675,6.35823994 C14.0530675,6.22316352 14.0960532,6.09729686 14.1818877,5.98072219 C14.2678317,5.86403788 14.3782803,5.7872351 14.5132062,5.75031383 L14.5314409,5.73205878 L14.5496482,5.69500047 C14.5622701,5.68277561 14.5745635,5.67674542 14.5867473,5.67674542 C15.4940742,5.50466553 16.2174662,5.48013359 16.7568683,5.60306737 L16.7563755,5.60306737 C17.01366,5.66432869 17.2619914,5.74403695 17.501315,5.8421921 C17.7405839,5.94037468 17.9888879,6.07232636 18.2462819,6.23807454 C18.5035938,6.40376791 18.7365927,6.58799044 18.9453335,6.79060505 C19.1539922,6.99321967 19.3379819,7.23870354 19.4972481,7.52694696 C19.6565142,7.81527262 19.7758885,8.12508771 19.8555627,8.4565567 C19.9351821,8.78805311 19.9657923,9.17154627 19.9473112,9.60700872 Z M13.5837388,11.9910917 C12.6642828,11.4875977 11.536442,11.266728 10.2003258,11.3284005 C8.86415484,11.3899907 7.73636872,11.7368093 6.81685795,12.3687191 C5.89734718,13.000629 5.43753702,13.7522931 5.43753702,14.6237662 C5.43753702,15.5072997 5.90027676,16.2376114 6.82564674,16.8145094 C7.75109886,17.3914349 8.87576372,17.6492806 10.1996687,17.5880193 L10.2003258,17.5873615 C11.4995618,17.5261002 12.6181485,17.142607 13.556113,16.4369095 C14.4940501,15.7312119 14.9630324,14.9365416 14.9630324,14.052871 C14.9630324,13.181809 14.5032496,12.494531 13.5837388,11.9910917 Z M12.3234089,14.991389 C12.268431,15.2984357 12.1551076,15.5562814 11.9833016,15.7647618 C11.5541017,16.3169908 10.9901949,16.669867 10.291554,16.8233355 C9.5929131,16.9769136 8.83893835,16.8572964 8.02960238,16.464621 C7.89464918,16.3908059 7.7781497,16.2986535 7.68007658,16.1883283 C7.58200345,16.0779757 7.51163831,15.9766958 7.46889902,15.884379 C7.42610496,15.7920621 7.39231877,15.6907274 7.36767727,15.5804022 C7.34292626,15.4700222 7.33055077,15.3964538 7.33055077,15.3595325 L7.33055077,15.2858545 L7.31231607,15.1385806 C7.31190536,15.0525133 7.318011,14.9329235 7.33055077,14.7797565 C7.34317268,14.6266717 7.3708533,14.4579632 7.41359259,14.2737407 C7.45630451,14.0896004 7.5329669,13.902445 7.64366194,13.7124116 C7.75432961,13.5223233 7.88925544,13.3444051 8.04852158,13.1786843 C8.20770558,13.0129635 8.42841118,12.8656897 8.71050143,12.7368627 C8.99256431,12.6080632 9.31128827,12.5252028 9.66670066,12.4883089 L9.66615307,12.4877333 C10.1689763,12.426472 10.6134813,12.4663261 10.9995039,12.6072409 C11.3855539,12.7482927 11.6766246,12.9477826 11.8726887,13.2058202 C12.068835,13.4638304 12.2067725,13.7491409 12.2863645,14.0617519 C12.3659839,14.3743902 12.3783047,14.6842327 12.3234089,14.991389 Z" id="Shape"></path>
                            <path d="M9.73134349,14.6879878 C9.6760918,14.6325923 9.61169538,14.5835284 9.53840064,14.5406866 C9.46496902,14.4978447 9.37612276,14.467173 9.27177975,14.4487535 C9.16746411,14.4303339 9.06013675,14.4271818 8.94993456,14.4394067 C8.79066841,14.4515219 8.64670737,14.5037653 8.51802405,14.5960821 C8.38931336,14.6883716 8.28814635,14.7989161 8.21433142,14.927743 C8.14059861,15.0565425 8.1037459,15.1884668 8.1037459,15.3236254 C8.10330783,15.3843934 8.11250732,15.4427218 8.13139912,15.4985286 C8.1501814,15.5543353 8.17468599,15.6033992 8.20496765,15.6458298 C8.23516717,15.6882057 8.26892599,15.731212 8.3061894,15.7747938 C8.34337068,15.8184031 8.38931336,15.8521997 8.44382579,15.8761286 C8.49833825,15.9001123 8.5535078,15.9215195 8.60917017,15.9403502 C8.66494207,15.9591808 8.726272,15.9715427 8.7933516,15.9774085 C8.86040383,15.9833838 8.93090585,15.9802043 9.00463866,15.9680617 L9.00521362,15.9669104 C9.1645619,15.9546856 9.31161683,15.9056765 9.4466248,15.8196092 C9.58155064,15.7336514 9.68882325,15.6293838 9.76846999,15.5068338 C9.84806199,15.3843111 9.88792645,15.2555116 9.88792645,15.1203256 C9.88754314,15.0343952 9.87516763,14.9546322 9.85082732,14.8812008 C9.82648701,14.8077421 9.78667732,14.7433012 9.73134349,14.6879878 Z" id="Shape"></path>
                        </g>
                        <g id="Group-10" transform="translate(0.000000, 48.000000)">
                            <path d="M11.9792399,0 C5.36330181,0 0,5.36928763 0,11.9926096 C0,18.6159315 5.36330181,23.9852192 11.9792399,23.9852192 C18.5952054,23.9852192 23.9584798,18.6159315 23.9584798,11.9926096 C23.9584798,5.36928763 18.595178,0 11.9792399,0 Z M17.6111887,13.9958959 C17.604864,14.3764288 17.4976188,14.7816032 17.2892613,15.2111725 C16.9460875,15.9475967 16.3545002,16.579671 15.5146088,17.1075051 C14.6746353,17.6352844 13.7675,18.0066624 12.7930935,18.2214744 C11.8187143,18.4362591 10.8777928,18.506785 9.9704111,18.4329151 C9.41887987,18.3959938 8.89478282,18.3316626 8.39811995,18.2397295 C7.9014571,18.1478238 7.38346566,18.0005225 6.84406349,17.7979079 C6.30468872,17.595211 5.83576123,17.3497272 5.43717148,17.0615112 C5.03855435,16.7732677 4.69529843,16.395887 4.40740375,15.9293142 C4.11945429,15.4627688 3.93864054,14.9349347 3.86490772,14.3458118 L3.86490775,13.9593584 C3.85277865,13.6895345 3.94474617,13.2907192 4.14089239,12.762885 C4.33703864,12.2351331 4.63730884,11.7072716 5.04178515,11.1794923 L5.24417389,10.884972 C5.39131096,10.7007494 5.5998053,10.4614054 5.86965696,10.1668303 C6.13959077,9.87231 6.43693137,9.56847029 6.76173357,9.25553046 C7.08653573,8.94253583 7.46960134,8.64193047 7.91090301,8.35365964 C8.35223205,8.06538881 8.78748284,7.84764386 9.21657327,7.7003426 C9.5720404,7.57743621 9.89073699,7.5038404 10.1727999,7.47947293 C10.4548627,7.45510546 10.6847404,7.47352497 10.8624603,7.53478629 C11.0401528,7.5960476 11.1872625,7.67581066 11.3038167,7.77399324 C11.4202341,7.87214839 11.5091077,8.00097536 11.5703007,8.16041925 C11.6314938,8.31983574 11.6713856,8.46395746 11.6897572,8.59278439 C11.7082383,8.72169356 11.7174652,8.85967543 11.7174652,9.00692188 C11.7049254,9.06815579 11.6864991,9.1510162 11.6621313,9.25553046 C11.637791,9.35998993 11.6224859,9.43684754 11.6162982,9.48585659 C11.6100283,9.53492046 11.6039227,9.59324893 11.5980908,9.66078712 C11.5921495,9.72840755 11.6013216,9.77133161 11.6256619,9.78986076 C11.6500022,9.80825285 11.6837611,9.8267546 11.7268837,9.84517412 C11.7700337,9.86367587 11.831391,9.86677318 11.9110925,9.85463057 C11.9907392,9.84240571 12.0919062,9.81787377 12.214703,9.78097993 L12.4536432,9.67016135 C12.6129094,9.60892744 12.8151339,9.54448655 13.0602619,9.47703059 C13.3054721,9.40946496 13.5659599,9.35426127 13.8416708,9.31147428 C14.1174638,9.26863246 14.3932568,9.27181203 14.6690498,9.32082107 C14.9448702,9.36996718 15.1686697,9.48053906 15.3404482,9.65250932 C15.4381106,9.75107563 15.5148552,9.86164752 15.5705176,9.98417017 C15.6262347,10.1066928 15.6631422,10.2201702 15.6811852,10.3246296 C15.6991461,10.4291713 15.7023221,10.5397432 15.690549,10.6563179 C15.6788032,10.7729748 15.6635255,10.8711573 15.6447158,10.9508382 C15.6258514,11.0306012 15.5981708,11.1102821 15.5617288,11.1900451 C15.5252594,11.269726 15.5007,11.321942 15.4881329,11.3466932 C15.4755931,11.3714718 15.463245,11.3898639 15.4510885,11.4020888 L15.3957547,11.4939945 C15.3592853,11.5555847 15.3684848,11.623123 15.4234353,11.6966091 C15.4783584,11.7700131 15.5978149,11.8252442 15.7817499,11.8621654 L15.7817499,11.8604386 C15.9288048,11.8848883 16.0972431,11.9400372 16.2872016,12.0259949 C16.4770779,12.1120349 16.679275,12.2471113 16.8937928,12.4313338 C17.1084202,12.6155563 17.2831283,12.8271888 17.4181089,13.0663958 C17.5530895,13.3055206 17.6174312,13.6153082 17.6111887,13.9958959 Z M16.664408,9.76264264 C16.5910859,8.92773442 16.0761883,8.6208248 15.1198248,8.84191374 C14.9974114,8.84153001 14.89326,8.79849632 14.8073981,8.71294974 C14.7214541,8.62729353 14.6784958,8.52302593 14.6784958,8.40009214 C14.6780851,8.32666079 14.6994958,8.2561897 14.7426458,8.18856927 C14.7857683,8.12103107 14.8380083,8.06585475 14.8991192,8.02312259 C14.9603122,7.98028077 15.0338807,7.9589284 15.1198522,7.9589284 C15.4019151,7.90978229 15.7084825,7.91589471 16.0395272,7.97718346 C17.1673681,8.17354862 17.6577063,8.9713163 17.510624,10.3705413 C17.510624,10.39532 17.5045184,10.4138217 17.4923893,10.4259643 C17.4802055,10.4876368 17.4557009,10.545883 17.4188208,10.6008674 C17.3818585,10.6558793 17.3328767,10.7018184 17.2716837,10.7387397 C17.2104907,10.7756335 17.1430277,10.7941353 17.0692676,10.7941353 L17.0686926,10.7935597 C16.9463065,10.7931485 16.8421552,10.7501422 16.7561838,10.6645134 C16.6703219,10.5789943 16.627391,10.4746993 16.627391,10.3517381 C16.6767835,10.167543 16.6891316,9.97120524 16.664408,9.76264264 Z M19.9473112,9.60700872 C19.92883,10.0425534 19.846062,10.4996972 19.6990071,10.9784126 C19.6378141,11.3958667 19.4355896,11.6046212 19.0923337,11.6046212 C18.9699203,11.6047034 18.8626477,11.5893812 18.7704611,11.5587369 C18.6782746,11.5280925 18.6015848,11.4759039 18.5403918,11.4019791 C18.4791166,11.3281915 18.4485338,11.2361213 18.4485338,11.1257139 C18.4485338,11.0762388 18.4546668,11.0179104 18.4668506,10.9507833 C18.4789797,10.8836563 18.4913826,10.8284252 18.503895,10.785227 C18.5164074,10.7420563 18.5288103,10.6961172 18.5409393,10.6474096 C18.5531506,10.5987569 18.5623227,10.5681125 18.56862,10.5555039 C18.5748898,10.5429501 18.5780659,10.5305608 18.5780659,10.5184182 C18.7741847,9.84333763 18.7128274,9.14367029 18.3938844,8.41947102 C18.235029,8.16140598 18.0480822,7.9344787 17.8330989,7.7385247 C17.6180883,7.54251587 17.4035704,7.38915699 17.1893812,7.27844804 C16.9751919,7.16762946 16.7605919,7.07558673 16.5456634,7.00210055 C16.3306253,6.92866921 16.1345065,6.88275747 15.9571973,6.86433796 C15.7798607,6.84583621 15.6296298,6.83662645 15.5064224,6.83662645 C15.3832971,6.83662645 15.3005017,6.84583621 15.2581457,6.86433796 C15.215735,6.88275747 15.1667532,6.9012592 15.1110086,6.91965131 C15.0553462,6.93815306 15.0031884,6.95046013 14.9545078,6.95681925 C14.9058546,6.96306873 14.8599392,6.97230589 14.8168166,6.98444853 C14.773694,6.99667339 14.7460134,7.00270358 14.7339117,7.00270358 L14.6785779,7.00270358 C14.5071005,7.00234725 14.3600456,6.94086664 14.2372763,6.81831659 C14.1144521,6.69576654 14.0530675,6.54243506 14.0530675,6.35823994 C14.0530675,6.22316352 14.0960532,6.09729686 14.1818877,5.98072219 C14.2678317,5.86403788 14.3782803,5.7872351 14.5132062,5.75031383 L14.5314409,5.73205878 L14.5496482,5.69500047 C14.5622701,5.68277561 14.5745635,5.67674542 14.5867473,5.67674542 C15.4940742,5.50466553 16.2174662,5.48013359 16.7568683,5.60306737 L16.7563755,5.60306737 C17.01366,5.66432869 17.2619914,5.74403695 17.501315,5.8421921 C17.7405839,5.94037468 17.9888879,6.07232636 18.2462819,6.23807454 C18.5035938,6.40376791 18.7365927,6.58799044 18.9453335,6.79060505 C19.1539922,6.99321967 19.3379819,7.23870354 19.4972481,7.52694696 C19.6565142,7.81527262 19.7758885,8.12508771 19.8555627,8.4565567 C19.9351821,8.78805311 19.9657923,9.17154627 19.9473112,9.60700872 Z M13.5837388,11.9910917 C12.6642828,11.4875977 11.536442,11.266728 10.2003258,11.3284005 C8.86415484,11.3899907 7.73636872,11.7368093 6.81685795,12.3687191 C5.89734718,13.000629 5.43753702,13.7522931 5.43753702,14.6237662 C5.43753702,15.5072997 5.90027676,16.2376114 6.82564674,16.8145094 C7.75109886,17.3914349 8.87576372,17.6492806 10.1996687,17.5880193 L10.2003258,17.5873615 C11.4995618,17.5261002 12.6181485,17.142607 13.556113,16.4369095 C14.4940501,15.7312119 14.9630324,14.9365416 14.9630324,14.052871 C14.9630324,13.181809 14.5032496,12.494531 13.5837388,11.9910917 Z M12.3234089,14.991389 C12.268431,15.2984357 12.1551076,15.5562814 11.9833016,15.7647618 C11.5541017,16.3169908 10.9901949,16.669867 10.291554,16.8233355 C9.5929131,16.9769136 8.83893835,16.8572964 8.02960238,16.464621 C7.89464918,16.3908059 7.7781497,16.2986535 7.68007658,16.1883283 C7.58200345,16.0779757 7.51163831,15.9766958 7.46889902,15.884379 C7.42610496,15.7920621 7.39231877,15.6907274 7.36767727,15.5804022 C7.34292626,15.4700222 7.33055077,15.3964538 7.33055077,15.3595325 L7.33055077,15.2858545 L7.31231607,15.1385806 C7.31190536,15.0525133 7.318011,14.9329235 7.33055077,14.7797565 C7.34317268,14.6266717 7.3708533,14.4579632 7.41359259,14.2737407 C7.45630451,14.0896004 7.5329669,13.902445 7.64366194,13.7124116 C7.75432961,13.5223233 7.88925544,13.3444051 8.04852158,13.1786843 C8.20770558,13.0129635 8.42841118,12.8656897 8.71050143,12.7368627 C8.99256431,12.6080632 9.31128827,12.5252028 9.66670066,12.4883089 L9.66615307,12.4877333 C10.1689763,12.426472 10.6134813,12.4663261 10.9995039,12.6072409 C11.3855539,12.7482927 11.6766246,12.9477826 11.8726887,13.2058202 C12.068835,13.4638304 12.2067725,13.7491409 12.2863645,14.0617519 C12.3659839,14.3743902 12.3783047,14.6842327 12.3234089,14.991389 Z" id="Shape" fill="#108EE9"></path>
                            <path d="M9.73134349,14.6879878 C9.6760918,14.6325923 9.61169538,14.5835284 9.53840064,14.5406866 C9.46496902,14.4978447 9.37612276,14.467173 9.27177975,14.4487535 C9.16746411,14.4303339 9.06013675,14.4271818 8.94993456,14.4394067 C8.79066841,14.4515219 8.64670737,14.5037653 8.51802405,14.5960821 C8.38931336,14.6883716 8.28814635,14.7989161 8.21433142,14.927743 C8.14059861,15.0565425 8.1037459,15.1884668 8.1037459,15.3236254 C8.10330783,15.3843934 8.11250732,15.4427218 8.13139912,15.4985286 C8.1501814,15.5543353 8.17468599,15.6033992 8.20496765,15.6458298 C8.23516717,15.6882057 8.26892599,15.731212 8.3061894,15.7747938 C8.34337068,15.8184031 8.38931336,15.8521997 8.44382579,15.8761286 C8.49833825,15.9001123 8.5535078,15.9215195 8.60917017,15.9403502 C8.66494207,15.9591808 8.726272,15.9715427 8.7933516,15.9774085 C8.86040383,15.9833838 8.93090585,15.9802043 9.00463866,15.9680617 L9.00521362,15.9669104 C9.1645619,15.9546856 9.31161683,15.9056765 9.4466248,15.8196092 C9.58155064,15.7336514 9.68882325,15.6293838 9.76846999,15.5068338 C9.84806199,15.3843111 9.88792645,15.2555116 9.88792645,15.1203256 C9.88754314,15.0343952 9.87516763,14.9546322 9.85082732,14.8812008 C9.82648701,14.8077421 9.78667732,14.7433012 9.73134349,14.6879878 Z" id="Shape" fill-opacity="0.2" fill="#000000"></path>
                        </g>
                        <path d="M35.9999732,24 C29.372617,24 24,29.372617 24,36.0000268 C24,42.6274098 29.372617,48 35.9999732,48 C42.627383,48 48,42.627383 48,36.0000268 C48,29.372617 42.627383,24 35.9999732,24 Z M31.5644633,32.0619412 C32.1620105,32.0619412 32.6464872,32.494976 32.6464872,33.0288306 C32.6464872,33.5630872 32.1620373,33.9956395 31.5644633,33.9956395 C30.967211,33.9956395 30.4827343,33.5630872 30.4827343,33.0288306 C30.4827343,32.4950028 30.967211,32.0619412 31.5644633,32.0619412 Z M32.0694852,38.763364 C31.6419121,40.068918 31.7491455,39.5837204 30.0564985,43.2150117 L27.6028147,41.7046758 C27.6028147,41.7046758 30.3368258,39.2479669 30.9006813,38.1251548 C31.4945862,36.9414551 30.2439569,36.3080424 30.2439569,36.3080424 L28.3644118,35.1533991 L29.3787676,33.6075059 C30.7990497,34.6467165 30.9025619,34.734282 31.8583395,35.6805758 C32.59889,36.4136046 32.5063412,37.4301807 32.0694852,38.763364 L32.0694852,38.763364 Z M44.2429281,40.2236865 C43.7970962,44.521861 38.3393134,42.9247127 38.3393134,42.9247127 L38.6366345,41.6956135 L39.8986212,41.9740155 C42.2382001,42.1259655 42.008231,40.0340086 42.008231,40.0340086 L42.008231,33.948354 C42.0287733,31.6414134 39.8879945,31.3989702 36.0487143,32.8070943 L36.9423611,33.0549986 C36.8649813,33.3257089 36.5740587,33.7483307 36.2044093,34.2084497 L41.3421959,34.2084497 L41.3421959,35.2732922 L38.4508182,35.2732922 L38.4508182,36.6042298 L41.3302223,36.6042298 L41.3302223,37.669303 L38.4508182,37.669303 L38.4508182,39.9017493 C38.8806353,39.7549912 39.283811,39.5551602 39.6342651,39.2901803 L39.3791513,38.3157925 L40.7391349,37.8834022 L41.8690371,40.7241101 L40.1960544,41.4347102 L39.8992573,40.3021806 C39.1535974,40.8902899 37.5993785,41.7381487 34.8864083,41.6628083 C31.9899418,41.7391487 32.7327579,38.3157925 32.7327579,38.3157925 L32.8074436,38.2776416 L34.8418064,38.2776416 C34.829047,38.7164545 34.6525103,39.4350924 34.8940415,39.8250244 C35.0923179,40.1448848 35.5997393,40.2002652 35.925872,40.2173408 C35.9627284,40.2198022 36.0002583,40.2200714 36.0374515,40.2216097 L36.0374515,37.669303 L33.0840352,37.669303 L33.0840352,36.6042683 L36.0374515,36.6042683 L36.0374515,35.2733306 L35.2801173,35.2733306 C34.616028,35.9956221 34.0089259,36.5920769 34.0089259,36.5920769 L33.1175989,35.7936374 C33.7497335,35.1115736 34.3839635,34.0308478 34.7740804,33.3089025 C34.4455922,33.4466745 34.1187615,33.5885847 33.7936619,33.734601 C33.4617669,34.1608764 33.0847836,34.6006893 32.6605417,35.0329258 C32.6778661,35.0584238 31.2056294,34.1883359 31.2056294,34.1883359 C32.7277065,32.8572059 33.5816532,30.0046912 33.5816532,30.0046912 L35.6979982,30.6128374 C35.6979982,30.6128374 35.5227337,31.0336517 35.1601188,31.6794874 C43.6386323,29.2199814 44.1317227,33.187104 44.1317227,33.187104 C44.1317227,33.187104 44.6889845,35.9256658 44.2429281,40.2236865 Z" id="Shape" fill-opacity="0.2" fill="#000000"></path>
                        <path d="M11.9999732,24 C5.372617,24 0,29.372617 0,36.0000268 C0,42.6274098 5.372617,48 11.9999732,48 C18.627383,48 24,42.627383 24,36.0000268 C24,29.372617 18.627383,24 11.9999732,24 Z M7.56446331,32.0619412 C8.1620105,32.0619412 8.64648721,32.494976 8.64648721,33.0288306 C8.64648721,33.5630872 8.16203731,33.9956395 7.56446331,33.9956395 C6.96721099,33.9956395 6.48273428,33.5630872 6.48273428,33.0288306 C6.48273428,32.4950028 6.96721099,32.0619412 7.56446331,32.0619412 Z M8.06948519,38.763364 C7.64191208,40.068918 7.74914546,39.5837204 6.05649854,43.2150117 L3.6028147,41.7046758 C3.6028147,41.7046758 6.3368258,39.2479669 6.90068133,38.1251548 C7.49458622,36.9414551 6.24395689,36.3080424 6.24395689,36.3080424 L4.36441179,35.1533991 L5.37876756,33.6075059 C6.7990497,34.6467165 6.90256192,34.734282 7.85833945,35.6805758 C8.59888999,36.4136046 8.50634118,37.4301807 8.06948519,38.763364 L8.06948519,38.763364 Z M20.2429281,40.2236865 C19.7970962,44.521861 14.3393134,42.9247127 14.3393134,42.9247127 L14.6366345,41.6956135 L15.8986212,41.9740155 C18.2382001,42.1259655 18.008231,40.0340086 18.008231,40.0340086 L18.008231,33.948354 C18.0287733,31.6414134 15.8879945,31.3989702 12.0487143,32.8070943 L12.9423611,33.0549986 C12.8649813,33.3257089 12.5740587,33.7483307 12.2044093,34.2084497 L17.3421959,34.2084497 L17.3421959,35.2732922 L14.4508182,35.2732922 L14.4508182,36.6042298 L17.3302223,36.6042298 L17.3302223,37.669303 L14.4508182,37.669303 L14.4508182,39.9017493 C14.8806353,39.7549912 15.283811,39.5551602 15.6342651,39.2901803 L15.3791513,38.3157925 L16.7391349,37.8834022 L17.8690371,40.7241101 L16.1960544,41.4347102 L15.8992573,40.3021806 C15.1535974,40.8902899 13.5993785,41.7381487 10.8864083,41.6628083 C7.98994176,41.7391487 8.73275789,38.3157925 8.73275789,38.3157925 L8.80744362,38.2776416 L10.8418064,38.2776416 C10.829047,38.7164545 10.6525103,39.4350924 10.8940415,39.8250244 C11.0923179,40.1448848 11.5997393,40.2002652 11.925872,40.2173408 C11.9627284,40.2198022 12.0002583,40.2200714 12.0374515,40.2216097 L12.0374515,37.669303 L9.08403524,37.669303 L9.08403524,36.6042683 L12.0374515,36.6042683 L12.0374515,35.2733306 L11.2801173,35.2733306 C10.616028,35.9956221 10.0089259,36.5920769 10.0089259,36.5920769 L9.11759891,35.7936374 C9.74973349,35.1115736 10.3839635,34.0308478 10.7740804,33.3089025 C10.4455922,33.4466745 10.1187615,33.5885847 9.79366187,33.734601 C9.46176689,34.1608764 9.08478359,34.6006893 8.66054173,35.0329258 C8.67786613,35.0584238 7.2056294,34.1883359 7.2056294,34.1883359 C8.7277065,32.8572059 9.5816532,30.0046912 9.5816532,30.0046912 L11.6979982,30.6128374 C11.6979982,30.6128374 11.5227337,31.0336517 11.1601188,31.6794874 C19.6386323,29.2199814 20.1317227,33.187104 20.1317227,33.187104 C20.1317227,33.187104 20.6889845,35.9256658 20.2429281,40.2236865 Z" id="Shape" fill="#108EE9"></path>
                        <path d="M29.4001043,13.5125739 C29.1168,13.7405739 28.8131478,14.0734435 28.7249739,14.4965739 C28.6049739,15.0746609 28.6999304,15.7983131 29.2576696,16.3659652 C29.9333217,17.0541391 30.9601043,17.2424869 31.4035826,17.2748348 C32.6082783,17.3619652 33.8922783,16.7645739 34.8601043,16.0831826 C35.2394087,15.8155304 35.8889739,15.2781391 36.5098435,14.4490957 C35.1183652,13.7306609 33.3814957,12.9360522 31.5246261,13.0137913 C30.5761043,13.0534435 29.8968,13.2501391 29.4001043,13.5125739 Z M47.0452174,16.6893913 C47.6593043,15.2478261 48,13.6633043 48,12 C48,5.38330434 42.6172174,0 36,0 C29.3827826,0 24,5.38330434 24,12 C24,18.6172174 29.3827826,24 36,24 C39.9933913,24 43.5349565,22.0377391 45.7179131,19.0283478 C43.6554783,18.0031304 40.2563478,16.3158261 38.1626087,15.2947826 C37.1634783,16.4337391 35.6864348,17.5753043 34.0179131,18.072 C32.9697391,18.3834783 32.0248696,18.5024348 31.0366957,18.3005217 C30.0584348,18.1001739 29.3379131,17.6420869 28.9179131,17.1829565 C28.704,16.9486957 28.4582609,16.6507826 28.2803478,16.2965217 C28.2970435,16.3413913 28.3085217,16.368 28.3085217,16.368 C28.3085217,16.368 28.2062609,16.1916522 28.128,15.9109565 C28.0878261,15.7753043 28.0606957,15.6339131 28.0497391,15.4857391 C28.0413913,15.3886957 28.0393043,15.2864348 28.0450435,15.18 C28.0361739,14.9994783 28.0434783,14.8100869 28.0841739,14.616 C28.1822609,14.1417391 28.3846957,13.5892174 28.9085217,13.0763478 C30.0584348,11.9504348 31.5986087,11.8899131 32.3963478,11.8946087 C33.5780869,11.9013913 35.6316522,12.4184348 37.3606957,13.0299131 C37.8396522,12.0099131 38.1469565,10.9189565 38.3452174,10.1916522 L31.1556522,10.1916522 L31.1556522,9.41426086 L34.8474783,9.41426086 L34.8474783,7.85947826 L30.3782609,7.85947826 L30.3782609,7.08208695 L34.8474783,7.08208695 L34.8474783,5.52782609 C34.8474783,5.31443477 34.8897391,5.13913043 35.2361739,5.13913043 L36.9850435,5.13913043 L36.9850435,7.08208695 L41.8434783,7.08208695 L41.8434783,7.85947826 L36.9850435,7.85947826 L36.9850435,9.41426086 L40.8714783,9.41426086 C40.8714783,9.41426086 40.4812174,11.5899131 39.2608696,13.7342609 C41.9692174,14.7015652 45.7794783,16.1916522 47.0452174,16.6893913 Z" id="Shape" fill-opacity="0.2" fill="#000000"></path>
                    </g>
                </g>
            </g>
        </g>
    </g>
</svg>