<?xml version="1.0" encoding="UTF-8" standalone="no"?>
<svg width="45px" height="44px" viewBox="0 0 45 44" version="1.1" xmlns="http://www.w3.org/2000/svg" xmlns:xlink="http://www.w3.org/1999/xlink">
    <!-- Generator: Sketch 45 (43475) - http://www.bohemiancoding.com/sketch -->
    <title>12</title>
    <desc>Created with Sketch.</desc>
    <defs>
        <linearGradient x1="113.137834%" y1="49.9858826%" x2="-8.13927315%" y2="49.9858837%" id="linearGradient-1">
            <stop stop-color="#0C9DDA" offset="0%"></stop>
            <stop stop-color="#7DBCE4" offset="100%"></stop>
        </linearGradient>
        <linearGradient x1="49.9897974%" y1="96.7956328%" x2="49.9897974%" y2="-0.0952697154%" id="linearGradient-2">
            <stop stop-color="#F37871" offset="0%"></stop>
            <stop stop-color="#E3636B" offset="50.32%"></stop>
            <stop stop-color="#E25E6B" offset="100%"></stop>
        </linearGradient>
        <linearGradient x1="49.9856862%" y1="3.17549249%" x2="49.9856861%" y2="99.9439217%" id="linearGradient-3">
            <stop stop-color="#E4736C" offset="0%"></stop>
            <stop stop-color="#E3636B" offset="50.32%"></stop>
            <stop stop-color="#E25E6B" offset="100%"></stop>
        </linearGradient>
    </defs>
    <g id="Page-1" stroke="none" stroke-width="1" fill="none" fill-rule="evenodd">
        <g id="账户密码登录-出错" transform="translate(-609.000000, -110.000000)">
            <g id="Group-5" transform="translate(565.000000, 110.000000)">
                <g id="Group-11" transform="translate(44.000000, 0.000000)">
                    <g id="12">
                        <g id="图层_1">
                            <path d="M23.6116358,0.610404624 L32.1077668,9.13063584 C32.893976,9.91907514 32.893976,11.216185 32.1077668,12.0300578 L32.1077668,12.0300578 C31.3215577,12.8184971 30.0281168,12.8184971 29.2165461,12.0300578 L23.6116358,6.40924855 C22.8254266,5.62080925 21.5319858,5.62080925 20.7204151,6.40924855 L6.61937373,20.550289 C5.83316459,21.3387283 5.83316459,22.6358382 6.61937373,23.449711 L20.7204151,37.5907514 C21.5066242,38.3791908 22.8000651,38.3791908 23.6116358,37.5907514 L29.2165461,31.9699422 C30.0027552,31.1815029 31.2961961,31.1815029 32.1077668,31.9699422 L32.1077668,31.9699422 C32.893976,32.7583815 32.893976,34.0554913 32.1077668,34.8693642 L23.6116358,43.3895954 C22.8254266,44.1780347 21.5319858,44.1780347 20.7204151,43.3895954 L0.83693231,23.449711 C0.0507231703,22.6612717 0.0507231703,21.3641618 0.83693231,20.550289 L20.7204151,0.610404624 C21.5066242,-0.178034682 22.8000651,-0.178034682 23.6116358,0.610404624 L23.6116358,0.610404624 Z" id="Shape" fill="url(#linearGradient-1)"></path>
                            <path d="M34.9989875,14.9294798 L34.9989875,14.9294798 C35.7851967,14.1410405 37.0786375,14.1410405 37.8902082,14.9294798 L43.4951186,20.550289 C44.2813277,21.3387283 44.2813277,22.6358382 43.4951186,23.449711 L37.8902082,29.0705202 C37.1039991,29.8589595 35.8105582,29.8589595 34.9989875,29.0705202 L34.9989875,29.0705202 C34.2127784,28.2820809 34.2127784,26.9849711 34.9989875,26.1710983 L37.7126771,23.449711 C38.4988863,22.6612717 38.4988863,21.3641618 37.7126771,20.550289 L34.9989875,17.8289017 C34.1874168,17.0150289 34.1874168,15.7179191 34.9989875,14.9294798 L34.9989875,14.9294798 Z" id="Shape" fill="url(#linearGradient-2)"></path>
                            <path d="M22.1660254,28.4855491 C25.7420089,28.4855491 28.6332296,25.5861272 28.6332296,22 C28.6332296,18.4138728 25.7420089,15.5144509 22.1660254,15.5144509 C18.5900419,15.5144509 15.6988212,18.4138728 15.6988212,22 C15.6988212,25.5861272 18.5900419,28.4855491 22.1660254,28.4855491 L22.1660254,28.4855491 Z M22.1660254,25.3572254 C20.3146297,25.3572254 18.7929346,23.8566474 18.7929346,21.9745665 C18.7929346,20.1179191 20.2892681,18.5919075 22.1660254,18.5919075 C24.0427827,18.5919075 25.5391163,20.0924855 25.5391163,21.9745665 C25.5137547,23.8566474 24.0174211,25.3572254 22.1660254,25.3572254 L22.1660254,25.3572254 Z" id="Shape" fill="url(#linearGradient-3)"></path>
                        </g>
                    </g>
                </g>
            </g>
        </g>
    </g>
</svg>